<svg width="15" height="15" viewBox="0 0 15 15" fill="none" xmlns="http://www.w3.org/2000/svg">
<g clip-path="url(#clip0_383_197)">
<path d="M7.49998 0C7.31249 0 7.14106 0.0964286 7.04464 0.251786C6.94821 0.407143 6.93749 0.605357 7.02321 0.771429L8.09462 2.91429C8.22854 3.17679 8.54996 3.28929 8.81246 3.15536C9.07495 3.02143 9.18209 2.7 9.05353 2.4375L8.39997 1.13036C11.5178 1.56964 13.9284 4.25893 13.9284 7.50007C13.9284 10.3018 12.1392 12.7608 9.4768 13.6179C9.19288 13.709 9.04288 14.009 9.13395 14.2929C9.20895 14.5179 9.41788 14.6626 9.64287 14.6626C9.69644 14.6626 9.75537 14.6519 9.80894 14.6358C12.9106 13.634 15 10.7679 15 7.50007C15 3.36436 11.6358 7.13893e-05 7.50013 7.13893e-05L7.49998 0Z" fill="#575757"/>
<path d="M7.5 15C7.6875 15 7.85892 14.9036 7.95535 14.7482C8.05178 14.5929 8.06249 14.3946 7.97678 14.2286L6.90537 12.0857C6.77144 11.8232 6.45002 11.7107 6.18753 11.8446C5.92503 11.9786 5.81789 12.3 5.94646 12.5625L6.60002 13.8696C3.48222 13.4304 1.07155 10.7411 1.07155 7.49993C1.07155 4.69821 2.8608 2.23921 5.52318 1.38207C5.8071 1.291 5.9571 0.991 5.86603 0.707071C5.77496 0.4285 5.47497 0.273143 5.19104 0.364214C2.08939 1.366 0 4.23207 0 7.49993C0 11.6356 3.36437 15 7.5 15Z" fill="#575757"/>
</g>
<defs>
<clipPath id="clip0_383_197">
<rect width="15" height="15" fill="white"/>
</clipPath>
</defs>
</svg>
