<svg width="15" height="15" viewBox="0 0 15 15" fill="none" xmlns="http://www.w3.org/2000/svg">
<g clip-path="url(#clip0_19_373)">
<path fill-rule="evenodd" clip-rule="evenodd" d="M11.677 6.32347C11.677 9.26355 9.29358 11.6469 6.3535 11.6469C3.41343 11.6469 1.03003 9.26355 1.03003 6.32347C1.03003 3.3834 3.41343 1 6.3535 1C9.29358 1 11.677 3.3834 11.677 6.32347ZM10.178 11.3597C9.11596 12.1675 7.79073 12.6469 6.3535 12.6469C2.86115 12.6469 0.0300293 9.81583 0.0300293 6.32347C0.0300293 2.83112 2.86115 0 6.3535 0C9.84586 0 12.677 2.83112 12.677 6.32347C12.677 7.99877 12.0255 9.52191 10.962 10.6534L14.205 13.8963C14.4108 14.1021 14.4108 14.4358 14.205 14.6415C13.9992 14.8473 13.6656 14.8473 13.4598 14.6415L10.178 11.3597Z" fill="white"/>
</g>
<defs>
<clipPath id="clip0_19_373">
<rect width="15" height="15" fill="white"/>
</clipPath>
</defs>
</svg>
