<svg width="15" height="16" viewBox="0 0 15 16" fill="none" xmlns="http://www.w3.org/2000/svg">
<path fill-rule="evenodd" clip-rule="evenodd" d="M5.68632 5.54346H2.5158C2.23114 5.54346 2 5.78725 2 6.08739C2 6.38767 2.23118 6.63145 2.5158 6.63145H5.37503L4.56563 9.46007H2.51589C2.23123 9.46007 2.00009 9.70386 2.00009 10.004C2.00009 10.3043 2.23127 10.5481 2.51589 10.5481H4.25423L3.32403 13.7987C3.24172 14.0862 3.39624 14.3899 3.66881 14.4767C3.94137 14.5634 4.2295 14.4005 4.31172 14.1131L5.33196 10.5479H8.14006L7.20986 13.7987C7.12764 14.0861 7.28216 14.3899 7.55471 14.4767C7.82727 14.5634 8.11532 14.4004 8.19762 14.113L9.21778 10.5479H12.4842C12.769 10.548 13 10.3042 13 10.004C13 9.70379 12.769 9.46005 12.4842 9.46005H9.52907L10.3385 6.63131H12.4841C12.7689 6.6314 12.9999 6.38767 12.9999 6.08739C12.9999 5.78721 12.7689 5.54346 12.4841 5.54346H10.6499L11.6062 2.20125C11.6885 1.91383 11.534 1.61008 11.2615 1.52329C10.9889 1.43658 10.7008 1.59953 10.6185 1.88695L9.57213 5.54349H6.76393L7.72038 2.20128C7.8026 1.91385 7.64808 1.6101 7.37552 1.52331C7.10296 1.43661 6.81492 1.59955 6.73262 1.88697L5.68634 5.54351L5.68632 5.54346ZM9.26073 6.63136H6.45252L5.64304 9.46009H8.45124L9.26073 6.63136Z" fill="#B2B7B7"/>
</svg>
