<svg width="11" height="14" viewBox="0 0 11 14" fill="none" xmlns="http://www.w3.org/2000/svg">
<path fill-rule="evenodd" clip-rule="evenodd" d="M3.68632 4.54346H0.515796C0.231137 4.54346 0 4.78725 0 5.08739C0 5.38767 0.231183 5.63145 0.515796 5.63145H3.37503L2.56563 8.46007H0.515887C0.231228 8.46007 9.107e-05 8.70386 9.107e-05 9.00399C9.107e-05 9.30427 0.231274 9.54806 0.515887 9.54806H2.25423L1.32403 12.7987C1.24172 13.0862 1.39624 13.3899 1.66881 13.4767C1.94137 13.5634 2.2295 13.4005 2.31172 13.1131L3.33196 9.54792H6.14006L5.20986 12.7987C5.12764 13.0861 5.28216 13.3899 5.55471 13.4767C5.82727 13.5634 6.11532 13.4004 6.19762 13.113L7.21778 9.54789H10.4842C10.769 9.54799 11 9.30425 11 9.00397C11 8.70379 10.769 8.46005 10.4842 8.46005H7.52907L8.33846 5.63131H10.4841C10.7689 5.6314 10.9999 5.38767 10.9999 5.08739C10.9999 4.78721 10.7689 4.54346 10.4841 4.54346H8.64987L9.60623 1.20125C9.68854 0.913828 9.53402 0.61008 9.26145 0.523287C8.98889 0.436582 8.70076 0.59953 8.61854 0.886948L7.57213 4.54349H4.76393L5.72038 1.20128C5.8026 0.913852 5.64808 0.610104 5.37552 0.523311C5.10296 0.436606 4.81492 0.599554 4.73262 0.886972L3.68634 4.54351L3.68632 4.54346ZM7.26073 5.63136H4.45252L3.64304 8.46009H6.45124L7.26073 5.63136Z" fill="#575757"/>
</svg>
