<svg width="16" height="19" viewBox="0 0 16 19" fill="none" xmlns="http://www.w3.org/2000/svg">
<path fill-rule="evenodd" clip-rule="evenodd" d="M5.36192 6.09864H0.750249C0.3362 6.09864 0 6.4362 0 6.85177C0 7.26754 0.336266 7.60509 0.750249 7.60509H4.90913L3.73183 11.5216H0.750382C0.336332 11.5216 0.000132465 11.8592 0.000132465 12.2748C0.000132465 12.6905 0.336398 13.0281 0.750382 13.0281H3.27888L1.92586 17.529C1.80614 17.927 2.0309 18.3476 2.42735 18.4678C2.82381 18.5878 3.24291 18.3622 3.3625 17.9642L4.84649 13.0279H8.93099L7.57797 17.529C7.45838 17.927 7.68314 18.3475 8.07958 18.4677C8.47604 18.5878 8.89501 18.3622 9.01472 17.9642L10.4986 13.0278H15.2498C15.6639 13.028 16 12.6905 16 12.2747C16 11.8591 15.6639 11.5216 15.2498 11.5216H10.9514L12.1287 7.60489H15.2496C15.6638 7.60502 15.9999 7.26754 15.9999 6.85177C15.9999 6.43613 15.6638 6.09864 15.2496 6.09864H12.5816L13.9727 1.47097C14.0924 1.07299 13.8677 0.652418 13.4712 0.532244C13.0747 0.41219 12.6556 0.637811 12.5361 1.03577L11.014 6.09868H6.92935L8.32055 1.471C8.44015 1.07303 8.21539 0.652451 7.81894 0.532277C7.42249 0.412223 7.00352 0.637844 6.8838 1.03581L5.36195 6.09871L5.36192 6.09864ZM10.5611 7.60496H6.4764L5.29896 11.5217H9.38362L10.5611 7.60496Z" fill="white"/>
</svg>
